PathFileType	4	(X/Y/Z)	C:\Users\WrightLab\Desktop\Jo\P1_boxCal14.trc
DataRate	CameraRate	NumFrames	NumMarkers	Units	OrigDataRate	OrigDataStartFrame	OrigNumFrames
100.00	100.00	       22	19	mm	100.00	609	       811
Frame#	Time	Headset_Front			Headset_Back			Headset_Left			Headset_Right			Left_Shoulder			Right_Shoulder			Sternum			C7			Left Elbow			Right Elbow			Left Wrist			Right Wrist			Left ASIS			Right ASIS			S2			Left Knee			Right Knee			Left Ankle			Right Ankle			
		X1	Y1	Z1	X2	Y2	Z2	X3	Y3	Z3	X4	Y4	Z4	X5	Y5	Z5	X6	Y6	Z6	X7	Y7	Z7	X8	Y8	Z8	X9	Y9	Z9	X10	Y10	Z10	X11	Y11	Z11	X12	Y12	Z12	X13	Y13	Z13	X14	Y14	Z14	X15	Y15	Z15	X16	Y16	Z16	X17	Y17	Z17	X18	Y18	Z18	X19	Y19	Z19	

609	6.080	-632.82330	466.39737	-622.48468	-863.87408	1505.97644	-575.49896							-719.59320	846.77759	-646.56732							-906.25696	846.00360	-704.23761				-548.30829	754.78632	-563.43707	-686.55731	143.76248	-445.06677	-592.91180	987.14624	-453.42688				-785.96899	1336.60718	-823.59821	-890.06641	1273.48181	-486.16235	-665.86243	1247.47253	-549.96783				-1033.89404	1241.42065	-641.33160	-937.25610	1414.37061	-703.49878	
610	6.090	-635.94525	467.43845	-634.46008	-863.93982	1505.47668	-583.73285							-720.07141	845.57642	-653.25360				-803.12787	1122.70422	-698.54114	-907.03516	845.42236	-708.83881				-548.71704	753.07074	-567.60583	-684.96045	135.42979	-469.02173	-594.11841	986.15607	-459.09375				-785.12762	1335.19446	-830.69543	-890.30603	1273.22339	-493.53708	-665.49536	1247.04663	-557.48962				-1034.15967	1240.23621	-648.48901	-936.73615	1413.74634	-711.80377	
611	6.100	-638.47821	468.44083	-645.07532	-864.18958	1504.70813	-591.43188							-720.85736	844.61084	-660.30328				-802.37030	1122.30994	-705.35107	-908.33331	844.69434	-713.30963				-548.17352	752.25824	-571.71106	-682.16040	128.17712	-493.63663	-594.09070	986.58148	-464.54416				-784.11035	1333.83069	-837.66296	-890.65625	1272.89722	-501.00790	-666.03589	1246.00061	-564.10596				-1033.65833	1239.45703	-656.54620	-936.34052	1412.39380	-719.46069	
612	6.110	-642.01300	469.16293	-655.51068	-864.13916	1503.72839	-600.11200							-719.22925	843.95984	-669.99274				-801.88007	1121.02466	-712.24902	-908.84619	843.16241	-717.18951				-547.23401	751.48486	-574.26428	-681.60309	119.38773	-518.16705	-594.95807	985.93793	-470.06866				-782.77826	1332.76355	-845.12250	-890.46326	1272.21228	-508.13586	-665.54541	1245.62500	-571.46655				-1033.29407	1237.78320	-663.94897	-935.55902	1411.56750	-727.61139	
613	6.120	-645.36359	469.89716	-666.07257	-864.66284	1504.19763	-608.41559							-719.25043	843.05890	-676.12500				-801.15527	1120.13257	-719.05890	-909.37665	842.36603	-722.57062				-545.72797	750.58911	-577.87122	-676.60382	113.62910	-544.31909	-595.48108	985.02069	-475.88348				-781.45911	1331.25317	-852.04395	-890.33246	1271.83899	-516.03467	-665.00110	1244.71460	-578.43085				-1032.69006	1236.77954	-672.12286	-934.75842	1410.52209	-735.65765	
614	6.130	-648.14423	470.60037	-675.84253	-863.63959	1501.79688	-615.43542							-719.10376	841.94653	-682.89630				-800.69122	1118.61829	-726.57697	-909.21570	841.16925	-728.07745				-544.85571	748.96210	-581.08417	-673.07257	106.01543	-570.38739	-595.43903	984.50488	-481.14606				-779.97327	1330.04236	-859.50977	-890.10321	1270.74329	-523.38190	-664.61768	1244.48450	-584.72302				-1032.28967	1235.75732	-679.92987	-933.88098	1409.32300	-743.72278	
615	6.140	-650.52881	470.43896	-685.87592	-863.25403	1501.08337	-623.34296							-718.06042	841.11224	-690.47308				-799.70947	1117.38794	-733.89819	-908.89374	840.20538	-734.16486				-542.65521	748.34894	-583.92126	-670.79358	99.22468	-597.97906	-595.41095	984.20593	-488.52289				-778.34515	1328.70911	-866.71466	-889.25482	1269.70593	-530.83051	-664.65839	1243.79602	-592.45209				-1031.94104	1234.51147	-687.14789	-932.79095	1408.11365	-751.84149	
616	6.150	-653.18842	470.36026	-695.23303	-863.05969	1500.11279	-630.64154							-717.46509	840.85260	-698.69293				-799.01483	1115.75989	-741.32520	-908.26819	839.01379	-741.04376				-541.06720	746.95087	-586.27618	-666.38037	92.94585	-625.35400	-594.47229	983.98309	-492.96164				-776.47205	1327.54932	-873.85553	-889.33203	1269.36475	-538.54895	-663.77264	1242.56018	-600.26971				-1030.83264	1233.02783	-694.71338	-931.46503	1407.27698	-760.08417	
617	6.160	-655.32501	468.46393	-703.57068	-860.65222	1495.83325	-638.89227							-717.46362	838.81824	-704.14221				-797.64307	1115.17810	-748.19904	-907.40771	837.32623	-747.13159				-538.41718	745.73309	-588.42706	-664.01117	88.07334	-652.10510	-594.25580	983.82318	-499.97455				-774.65790	1326.15308	-881.18506	-887.87317	1268.06982	-545.44208	-663.45764	1241.81702	-606.32941				-1030.29260	1232.44580	-702.85291	-930.15527	1406.10803	-768.48645	
618	6.170	-657.22583	467.39703	-711.76941	-861.35400	1497.48560	-646.59399							-716.70123	838.47394	-711.86951				-796.66742	1114.09595	-755.82062	-907.21570	836.89136	-755.03949				-536.47913	744.61304	-590.14478	-659.79144	83.89854	-680.07770	-593.58575	984.02527	-505.22787				-772.34766	1325.21826	-888.62457	-888.16022	1267.44690	-553.89752	-662.29346	1241.44189	-615.87103				-1029.27246	1232.19861	-711.27075	-928.72314	1405.01367	-776.26410	
619	6.180	-658.40796	465.91217	-720.80121	-860.20093	1496.95703	-654.52527							-715.92090	837.38916	-719.03680				-795.59717	1113.15710	-763.58832	-906.12781	835.24109	-762.21033				-533.05804	744.29022	-592.77069	-657.37317	81.24006	-707.23145	-592.39172	983.50171	-512.31409				-770.05804	1324.22205	-895.59198	-885.93665	1265.62305	-561.30908	-661.42212	1240.05676	-623.33362				-1028.00073	1231.60767	-719.09766	-926.91266	1404.22522	-784.59863	
620	6.190	-659.31580	463.68481	-728.28345	-859.06976	1495.48584	-662.00647							-714.95190	835.84332	-726.67548				-794.78491	1111.48315	-770.96069	-905.54126	834.26514	-769.35345				-527.94330	744.55383	-594.24792	-654.61804	79.64219	-732.69293	-590.76147	983.27386	-517.73297				-767.55212	1323.29968	-902.96124	-886.34174	1265.02112	-568.93512	-660.50592	1239.19250	-630.27271				-1026.51501	1230.18933	-726.23944	-924.89532	1403.57849	-792.81091	
621	6.200	-659.97388	462.12518	-736.32025	-857.88440	1494.63037	-669.46191							-713.61029	834.61798	-735.56384				-793.43573	1110.94702	-779.46368	-904.87000	833.46509	-777.43616				-523.96912	744.34454	-596.71753	-652.21674	79.11291	-758.54535	-589.28021	983.03284	-525.17145				-764.68359	1322.46777	-910.30328	-884.99377	1264.08630	-576.95081	-659.25568	1237.80054	-637.67908				-1025.60828	1229.72546	-734.02087	-922.89398	1402.80054	-801.29816	
622	6.210	-660.63678	459.90204	-743.53693	-856.17914	1493.35693	-676.70062							-712.38702	832.94318	-743.99640				-792.09552	1110.12744	-787.24176	-903.42999	832.32367	-784.88562				-520.46313	744.26849	-599.75116	-651.30450	79.55599	-783.51068	-587.96606	983.39911	-531.68488				-761.57330	1321.81494	-917.60931	-883.72284	1262.68311	-584.70093	-657.94165	1237.34351	-645.07141				-1024.33765	1229.43140	-742.19208	-920.46631	1402.03979	-808.92749	
623	6.220	-659.92633	457.48709	-750.70380	-854.89050	1492.13110	-683.94434							-711.71124	832.58789	-752.70941				-790.90179	1108.63049	-795.97632	-902.32745	831.43976	-792.78241				-514.92102	744.55243	-600.92139	-650.61774	80.48550	-806.66162	-586.12067	983.23492	-538.25195				-758.12042	1321.49695	-925.15350	-882.05542	1261.64111	-592.87756	-656.72595	1236.64404	-654.85059				-1022.84949	1229.21277	-749.72662	-917.89301	1401.62012	-817.72913	
624	6.230	-660.15265	455.57877	-757.96832	-853.58435	1492.50159	-691.92175							-709.17096	831.51874	-762.18396				-789.23254	1108.36169	-804.21088	-900.94226	830.04071	-800.73077				-511.19070	743.88525	-603.43762	-648.92841	82.96132	-828.81244	-584.23706	982.40375	-544.81854				-754.49127	1321.18359	-932.27356	-879.68781	1259.10437	-600.01563	-655.07996	1235.40259	-662.44409				-1021.37463	1228.69690	-757.40283	-915.05713	1400.97852	-825.22461	
625	6.240	-659.57593	454.07822	-765.95404	-850.69562	1490.12842	-697.82770							-708.20441	830.21692	-771.02850				-787.75897	1107.47375	-812.22406	-900.03302	829.40375	-809.12988				-505.11725	745.20233	-605.60974	-648.48834	86.41093	-849.89197	-582.82776	981.74591	-551.18872				-750.73352	1320.93774	-939.59387	-879.04608	1258.37195	-608.06946	-653.80841	1233.94312	-668.48346				-1019.49567	1228.04395	-764.85083	-912.09576	1400.44983	-833.10156	
626	6.250	-658.53107	452.71182	-773.48932	-848.34296	1488.68616	-705.02747							-706.59479	830.04846	-782.15717				-785.85272	1106.88306	-820.87280	-898.05219	828.07568	-816.73730				-500.33371	744.60260	-608.74646	-648.37769	90.20701	-870.53125	-580.30945	981.36963	-557.72955				-746.79547	1320.77808	-946.36615	-876.36963	1256.33887	-615.54779	-651.61066	1232.76489	-675.87061				-1018.11182	1227.65906	-772.08557	-908.87817	1400.21753	-841.29590	
627	6.260	-658.05322	451.04349	-782.68927	-846.18555	1487.45874	-711.41876							-705.67902	828.38763	-790.60498				-784.06714	1106.30261	-829.79645	-897.50616	827.45398	-825.37506				-495.63043	744.81842	-610.78534	-649.02155	92.06532	-887.51373	-579.25555	980.65973	-564.79834				-742.39075	1321.21472	-952.99420	-874.84399	1254.85156	-623.83893	-649.47852	1231.89221	-684.21381				-1016.09021	1226.64063	-779.99249	-905.24359	1400.24194	-848.81592	
628	6.270	-655.77185	450.02545	-792.97668	-843.62689	1485.88757	-718.11139							-703.72046	827.07373	-801.12744				-781.65027	1106.47803	-838.37286	-896.02472	825.57489	-833.98920				-488.70074	746.46692	-613.32819	-647.96271	95.06020	-906.42719	-576.77008	980.82092	-571.77020				-738.08258	1321.40198	-960.14038	-871.83691	1252.59021	-631.49512	-647.55554	1230.84058	-692.85345				-1014.32300	1226.19324	-787.88391	-901.77173	1399.78137	-856.77441	
629	6.280	-655.51508	447.71353	-801.29724	-840.71490	1484.51465	-724.42224							-702.84979	825.36646	-809.82031				-779.65778	1105.34460	-847.11633	-894.94739	825.01575	-843.44739				-484.81039	745.77844	-616.40607	-646.76849	97.49439	-922.37915	-575.14929	979.08746	-578.47076				-733.49738	1322.14905	-967.47009	-870.07275	1251.30225	-639.66199	-644.79388	1228.92883	-700.64069				-1011.99109	1225.19666	-795.56116	-897.88452	1399.95679	-864.68719	
630	6.290	-653.90747	445.02643	-810.36749	-838.26160	1483.45728	-731.74774							-700.73083	824.73035	-821.17908				-777.42499	1104.74304	-856.40326	-892.80682	823.85767	-852.70343				-479.53864	745.69763	-619.40021	-645.42883	98.60038	-938.71082	-573.00037	977.89526	-584.49884				-728.79907	1322.62988	-974.56726	-868.45526	1249.98291	-648.17505	-642.17529	1227.11243	-706.83905				-1009.49493	1224.81299	-804.02173	-894.04419	1399.73645	-872.14117	
